<svg xmlns="http://www.w3.org/2000/svg" width="16" height="15" viewBox="0 0 16 15">
  <metadata><?xpacket begin="﻿" id="W5M0MpCehiHzreSzNTczkc9d"?>
<x:xmpmeta xmlns:x="adobe:ns:meta/" x:xmptk="Adobe XMP Core 5.6-c142 79.160924, 2017/07/13-01:06:39        ">
   <rdf:RDF xmlns:rdf="http://www.w3.org/1999/02/22-rdf-syntax-ns#">
      <rdf:Description rdf:about=""/>
   </rdf:RDF>
</x:xmpmeta>
                                                                                                    
                                                                                                    
                                                                                                    
                                                                                                    
                                                                                                    
                                                                                                    
                                                                                                    
                                                                                                    
                                                                                                    
                                                                                                    
                                                                                                    
                                                                                                    
                                                                                                    
                                                                                                    
                                                                                                    
                                                                                                    
                                                                                                    
                                                                                                    
                                                                                                    
                                                                                                    
                           
<?xpacket end="w"?></metadata>
<defs>
    <style>
      .cls-1 {
        fill: #f6a937;
      }

      .cls-1, .cls-2 {
        fill-rule: evenodd;
      }

      .cls-2 {
        fill: #fff;
      }
    </style>
  </defs>
  <path class="cls-1" d="M8,0.128A7.436,7.436,0,1,0,15.44,7.564,7.436,7.436,0,0,0,8,.128Zm3.215,8.85H8.067c-0.011,0-.021,0-0.031,0s-0.02,0-.031,0A0.514,0.514,0,0,1,7.49,8.464V3.214a0.514,0.514,0,0,1,1.029,0V7.95h2.7A0.514,0.514,0,0,1,11.219,8.978Z"/>
  <path id="Rectangle_1_copy" data-name="Rectangle 1 copy" class="cls-2" d="M7.833,2H7.858a0.833,0.833,0,0,1,.833.833V8.167A0.833,0.833,0,0,1,7.858,9H7.833A0.833,0.833,0,0,1,7,8.167V2.833A0.833,0.833,0,0,1,7.833,2ZM7.789,7.421h4.421A0.79,0.79,0,0,1,13,8.21h0a0.79,0.79,0,0,1-.789.79H7.789A0.79,0.79,0,0,1,7,8.21H7A0.79,0.79,0,0,1,7.789,7.421Z"/>
</svg>
