<svg xmlns="http://www.w3.org/2000/svg" width="11" height="15" viewBox="0 0 11 15">
  <metadata><?xpacket begin="﻿" id="W5M0MpCehiHzreSzNTczkc9d"?>
<x:xmpmeta xmlns:x="adobe:ns:meta/" x:xmptk="Adobe XMP Core 5.6-c142 79.160924, 2017/07/13-01:06:39        ">
   <rdf:RDF xmlns:rdf="http://www.w3.org/1999/02/22-rdf-syntax-ns#">
      <rdf:Description rdf:about=""/>
   </rdf:RDF>
</x:xmpmeta>
                                                                                                    
                                                                                                    
                                                                                                    
                                                                                                    
                                                                                                    
                                                                                                    
                                                                                                    
                                                                                                    
                                                                                                    
                                                                                                    
                                                                                                    
                                                                                                    
                                                                                                    
                                                                                                    
                                                                                                    
                                                                                                    
                                                                                                    
                                                                                                    
                                                                                                    
                                                                                                    
                           
<?xpacket end="w"?></metadata>
<defs>
    <style>
      .cls-1 {
        fill: #f6a937;
        fill-rule: evenodd;
      }
    </style>
  </defs>
  <path id="Forma_1" data-name="Forma 1" class="cls-1" d="M10.74,3.733a4.51,4.51,0,0,0-.258-0.6A5.4,5.4,0,0,0,5.426,0,5.269,5.269,0,0,0,0,4.653v0.64C0,5.32.01,5.56,0.024,5.68c0.2,1.493,1.453,3.08,2.39,4.573C3.421,11.853,4.467,13.427,5.5,15c0.639-1.026,1.275-2.067,1.9-3.066,0.17-.293.368-0.587,0.538-0.867,0.113-.186.33-0.373,0.43-0.546C9.378,8.787,11,7.04,11,5.32V4.613A5.05,5.05,0,0,0,10.74,3.733ZM5.47,6.946A1.952,1.952,0,0,1,3.6,5.693a1.64,1.64,0,0,1-.053-0.467V4.813A1.809,1.809,0,0,1,5.531,3.106a1.95,1.95,0,0,1,2.014,1.92A2,2,0,0,1,5.47,6.946Z"/>
</svg>
