<svg xmlns="http://www.w3.org/2000/svg" width="15" height="15" viewBox="0 0 15 15">
  <metadata><?xpacket begin="﻿" id="W5M0MpCehiHzreSzNTczkc9d"?>
<x:xmpmeta xmlns:x="adobe:ns:meta/" x:xmptk="Adobe XMP Core 5.6-c142 79.160924, 2017/07/13-01:06:39        ">
   <rdf:RDF xmlns:rdf="http://www.w3.org/1999/02/22-rdf-syntax-ns#">
      <rdf:Description rdf:about=""/>
   </rdf:RDF>
</x:xmpmeta>
                                                                                                    
                                                                                                    
                                                                                                    
                                                                                                    
                                                                                                    
                                                                                                    
                                                                                                    
                                                                                                    
                                                                                                    
                                                                                                    
                                                                                                    
                                                                                                    
                                                                                                    
                                                                                                    
                                                                                                    
                                                                                                    
                                                                                                    
                                                                                                    
                                                                                                    
                                                                                                    
                           
<?xpacket end="w"?></metadata>
<defs>
    <style>
      .cls-1 {
        fill: #f6a937;
        fill-rule: evenodd;
      }
    </style>
  </defs>
  <path class="cls-1" d="M11.4,9.922a1.051,1.051,0,0,0-1.589,0c-0.371.368-.743,0.737-1.108,1.111a0.219,0.219,0,0,1-.306.056c-0.24-.131-0.5-0.237-0.727-0.381A11.521,11.521,0,0,1,4.9,8.181a6.589,6.589,0,0,1-1-1.595,0.229,0.229,0,0,1,.056-0.294c0.371-.359.733-0.727,1.1-1.1a1.055,1.055,0,0,0,0-1.626C4.762,3.277,4.472,2.99,4.181,2.7s-0.6-.6-0.9-0.9a1.058,1.058,0,0,0-1.589,0C1.319,2.169.96,2.546,0.579,2.909a1.809,1.809,0,0,0-.568,1.22,5.17,5.17,0,0,0,.4,2.226,13.528,13.528,0,0,0,2.4,4A14.857,14.857,0,0,0,7.73,14.2a7.128,7.128,0,0,0,2.725.793,2,2,0,0,0,1.714-.652c0.318-.356.677-0.68,1.014-1.021A1.061,1.061,0,0,0,13.19,11.7Q12.3,10.81,11.4,9.922Zm-0.6-2.488,1.152-.2A5.171,5.171,0,0,0,7.587,3L7.424,4.154A4,4,0,0,1,10.808,7.435Zm1.8-5.007A8.494,8.494,0,0,0,7.74,0L7.577,1.158a7.41,7.41,0,0,1,6.271,6.077L15,7.038A8.557,8.557,0,0,0,12.609,2.428Z"/>
</svg>
