<svg xmlns="http://www.w3.org/2000/svg" style="display: none;"><symbol id="night" viewBox="0 0 512 512"><title>night</title><path d="M507.681,209.011c-1.297-6.991-7.323-12.112-14.433-12.262c-7.145-0.155-13.346,4.712-14.936,11.642 c-15.26,66.498-73.643,112.941-141.978,112.941c-80.321,0-145.667-65.346-145.667-145.666 c0-68.335,46.443-126.718,112.942-141.976c6.93-1.59,11.791-7.827,11.643-14.934c-0.149-7.108-5.269-13.136-12.259-14.434 C287.545,1.454,271.735,0,256,0C187.62,0,123.333,26.629,74.98,74.981C26.629,123.333,0,187.62,0,256 s26.629,132.667,74.98,181.019C123.333,485.371,187.62,512,256,512s132.667-26.629,181.02-74.981 C485.371,388.667,512,324.38,512,256C512,240.278,510.547,224.469,507.681,209.011z M256,482C131.383,482,30,380.617,30,256 c0-118.227,91.264-215.544,207.036-225.212c-14.041,9.63-26.724,21.303-37.513,34.681 c-25.058,31.071-38.857,70.207-38.857,110.197c0,96.863,78.804,175.666,175.667,175.666c39.99,0,79.126-13.8,110.197-38.857 c13.378-10.789,25.051-23.471,34.682-37.511C471.544,390.736,374.228,482,256,482z"/></symbol><symbol id="sun" viewBox="0 0 512 512"><title>sun</title><g><path d="m256 360.099c-57.4 0-104.099-46.698-104.099-104.099s46.699-104.099 104.099-104.099 104.099 46.699 104.099 104.099-46.699 104.099-104.099 104.099zm0-178.198c-40.858 0-74.099 33.241-74.099 74.099s33.24 74.099 74.099 74.099 74.099-33.241 74.099-74.099-33.241-74.099-74.099-74.099z"/></g><g><path d="m256 116.071c-8.284 0-15-6.716-15-15v-86.071c0-8.284 6.716-15 15-15s15 6.716 15 15v86.071c0 8.284-6.716 15-15 15z"/></g><g><path d="m146.449 161.449c-3.839 0-7.678-1.464-10.606-4.393l-60.863-60.862c-5.858-5.858-5.858-15.355 0-21.213 5.857-5.858 15.355-5.858 21.213 0l60.862 60.861c5.858 5.858 5.858 15.355 0 21.213-2.928 2.929-6.767 4.394-10.606 4.394z"/></g><g><path d="m101.071 271h-86.071c-8.284 0-15-6.716-15-15s6.716-15 15-15h86.071c8.284 0 15 6.716 15 15s-6.716 15-15 15z"/></g><g><path d="m85.587 441.413c-3.839 0-7.678-1.464-10.606-4.394-5.858-5.858-5.858-15.355 0-21.213l60.862-60.861c5.858-5.857 15.356-5.857 21.213 0 5.858 5.858 5.858 15.355 0 21.213l-60.863 60.862c-2.928 2.928-6.767 4.393-10.606 4.393z"/></g><g><path d="m256 512c-8.284 0-15-6.716-15-15v-86.071c0-8.284 6.716-15 15-15s15 6.716 15 15v86.071c0 8.284-6.716 15-15 15z"/></g><g><path d="m426.413 441.413c-3.839 0-7.678-1.464-10.606-4.393l-60.862-60.861c-5.858-5.858-5.858-15.355 0-21.213 5.857-5.858 15.355-5.858 21.213 0l60.862 60.861c5.858 5.858 5.858 15.355 0 21.213-2.929 2.928-6.768 4.393-10.607 4.393z"/></g><g><path d="m497 271h-86.071c-8.284 0-15-6.716-15-15s6.716-15 15-15h86.071c8.284 0 15 6.716 15 15s-6.716 15-15 15z"/></g><g><path d="m365.551 161.449c-3.839 0-7.678-1.464-10.606-4.394-5.858-5.858-5.858-15.355 0-21.213l60.862-60.861c5.857-5.856 15.355-5.858 21.213 0s5.858 15.355 0 21.213l-60.862 60.861c-2.929 2.929-6.769 4.394-10.607 4.394z"/></g></symbol></svg>